<mxfile host="app.diagrams.net" modified="2023-05-26T03:30:32.572Z" agent="Mozilla/5.0 (Macintosh; Intel Mac OS X 10_15_7) AppleWebKit/537.36 (KHTML, like Gecko) Chrome/113.0.0.0 Safari/537.36" etag="1mmyKzgjh3Tb3JXwIU9y" version="21.3.2" type="github">
  <diagram name="Page-1" id="sKeovkZOe7NUVcBdb_DG">
    <mxGraphModel dx="1314" dy="853" grid="1" gridSize="10" guides="1" tooltips="1" connect="1" arrows="1" fold="1" page="1" pageScale="1" pageWidth="850" pageHeight="1100" math="0" shadow="0">
      <root>
        <mxCell id="0" />
        <mxCell id="1" parent="0" />
        <mxCell id="VqD7BTYmIf6rzseSs0lO-51" value="" style="rounded=1;whiteSpace=wrap;html=1;" vertex="1" parent="1">
          <mxGeometry x="20" y="260" width="700" height="760" as="geometry" />
        </mxCell>
        <mxCell id="VqD7BTYmIf6rzseSs0lO-15" style="edgeStyle=orthogonalEdgeStyle;rounded=0;orthogonalLoop=1;jettySize=auto;html=1;" edge="1" parent="1" source="VqD7BTYmIf6rzseSs0lO-1" target="VqD7BTYmIf6rzseSs0lO-2">
          <mxGeometry relative="1" as="geometry" />
        </mxCell>
        <mxCell id="VqD7BTYmIf6rzseSs0lO-1" value="&lt;font style=&quot;font-size: 18px;&quot;&gt;&lt;b&gt;路由器&lt;/b&gt;&lt;/font&gt;" style="strokeWidth=2;html=1;shape=mxgraph.flowchart.database;whiteSpace=wrap;fillColor=#f5f5f5;fontColor=#333333;strokeColor=#666666;" vertex="1" parent="1">
          <mxGeometry x="150" y="720" width="70" height="80" as="geometry" />
        </mxCell>
        <mxCell id="VqD7BTYmIf6rzseSs0lO-17" style="edgeStyle=orthogonalEdgeStyle;rounded=0;orthogonalLoop=1;jettySize=auto;html=1;" edge="1" parent="1" source="VqD7BTYmIf6rzseSs0lO-2">
          <mxGeometry relative="1" as="geometry">
            <mxPoint x="340" y="510" as="targetPoint" />
          </mxGeometry>
        </mxCell>
        <mxCell id="VqD7BTYmIf6rzseSs0lO-25" style="edgeStyle=orthogonalEdgeStyle;rounded=0;orthogonalLoop=1;jettySize=auto;html=1;" edge="1" parent="1" source="VqD7BTYmIf6rzseSs0lO-2" target="VqD7BTYmIf6rzseSs0lO-24">
          <mxGeometry relative="1" as="geometry" />
        </mxCell>
        <mxCell id="VqD7BTYmIf6rzseSs0lO-2" value="&lt;font style=&quot;font-size: 18px;&quot;&gt;&lt;b&gt;网损仪&lt;/b&gt;&lt;/font&gt;" style="html=1;shape=mxgraph.basic.isocube;isoAngle=15;strokeWidth=2;fillColor=#f5f5f5;strokeColor=#666666;fontColor=#333333;" vertex="1" parent="1">
          <mxGeometry x="290" y="600" width="100" height="100" as="geometry" />
        </mxCell>
        <mxCell id="VqD7BTYmIf6rzseSs0lO-13" value="&lt;font style=&quot;font-size: 18px;&quot;&gt;&lt;b&gt;手机&lt;br&gt;&lt;/b&gt;&lt;/font&gt;" style="rounded=1;whiteSpace=wrap;html=1;strokeWidth=2;fillColor=#f5f5f5;fontColor=#333333;strokeColor=#666666;" vertex="1" parent="1">
          <mxGeometry x="160" y="880" width="50" height="90" as="geometry" />
        </mxCell>
        <mxCell id="VqD7BTYmIf6rzseSs0lO-14" value="" style="endArrow=classic;html=1;rounded=0;exitX=0.5;exitY=0;exitDx=0;exitDy=0;entryX=0.5;entryY=1;entryDx=0;entryDy=0;entryPerimeter=0;" edge="1" parent="1" source="VqD7BTYmIf6rzseSs0lO-13" target="VqD7BTYmIf6rzseSs0lO-1">
          <mxGeometry width="50" height="50" relative="1" as="geometry">
            <mxPoint x="400" y="720" as="sourcePoint" />
            <mxPoint x="450" y="670" as="targetPoint" />
          </mxGeometry>
        </mxCell>
        <mxCell id="VqD7BTYmIf6rzseSs0lO-16" value="&lt;font style=&quot;font-size: 18px;&quot;&gt;wifi&lt;/font&gt;" style="html=1;shadow=0;dashed=0;align=center;verticalAlign=middle;shape=mxgraph.arrows2.arrow;dy=0.6;dx=40;direction=north;notch=0;" vertex="1" parent="1">
          <mxGeometry x="174" y="600" width="20" height="130" as="geometry" />
        </mxCell>
        <mxCell id="VqD7BTYmIf6rzseSs0lO-18" value="" style="shape=link;html=1;rounded=0;" edge="1" parent="1">
          <mxGeometry relative="1" as="geometry">
            <mxPoint x="80" y="510" as="sourcePoint" />
            <mxPoint x="600" y="510" as="targetPoint" />
          </mxGeometry>
        </mxCell>
        <mxCell id="VqD7BTYmIf6rzseSs0lO-19" value="M" style="resizable=0;html=1;whiteSpace=wrap;align=left;verticalAlign=bottom;" connectable="0" vertex="1" parent="VqD7BTYmIf6rzseSs0lO-18">
          <mxGeometry x="-1" relative="1" as="geometry" />
        </mxCell>
        <mxCell id="VqD7BTYmIf6rzseSs0lO-20" value="N" style="resizable=0;html=1;whiteSpace=wrap;align=right;verticalAlign=bottom;" connectable="0" vertex="1" parent="VqD7BTYmIf6rzseSs0lO-18">
          <mxGeometry x="1" relative="1" as="geometry" />
        </mxCell>
        <mxCell id="VqD7BTYmIf6rzseSs0lO-22" value="&lt;font style=&quot;font-size: 18px;&quot;&gt;&lt;b&gt;game server&lt;/b&gt;&lt;/font&gt;" style="strokeWidth=2;html=1;shape=mxgraph.flowchart.database;whiteSpace=wrap;fillColor=#f5f5f5;fontColor=#333333;strokeColor=#666666;" vertex="1" parent="1">
          <mxGeometry x="305" y="340" width="70" height="110" as="geometry" />
        </mxCell>
        <mxCell id="VqD7BTYmIf6rzseSs0lO-23" value="" style="endArrow=classic;html=1;rounded=0;entryX=0.5;entryY=1;entryDx=0;entryDy=0;entryPerimeter=0;" edge="1" parent="1" target="VqD7BTYmIf6rzseSs0lO-22">
          <mxGeometry width="50" height="50" relative="1" as="geometry">
            <mxPoint x="340" y="510" as="sourcePoint" />
            <mxPoint x="450" y="670" as="targetPoint" />
          </mxGeometry>
        </mxCell>
        <mxCell id="VqD7BTYmIf6rzseSs0lO-24" value="&lt;font style=&quot;font-size: 18px;&quot;&gt;控制台&lt;/font&gt;" style="rounded=1;whiteSpace=wrap;html=1;fillColor=#f5f5f5;fontColor=#333333;strokeColor=#666666;" vertex="1" parent="1">
          <mxGeometry x="460" y="620" width="120" height="60" as="geometry" />
        </mxCell>
        <mxCell id="VqD7BTYmIf6rzseSs0lO-26" value="" style="endArrow=classic;html=1;rounded=0;" edge="1" parent="1">
          <mxGeometry width="50" height="50" relative="1" as="geometry">
            <mxPoint x="110" y="580" as="sourcePoint" />
            <mxPoint x="110" y="520" as="targetPoint" />
          </mxGeometry>
        </mxCell>
        <mxCell id="VqD7BTYmIf6rzseSs0lO-27" value="" style="endArrow=classic;html=1;rounded=0;" edge="1" parent="1">
          <mxGeometry width="50" height="50" relative="1" as="geometry">
            <mxPoint x="240" y="580" as="sourcePoint" />
            <mxPoint x="240" y="520" as="targetPoint" />
          </mxGeometry>
        </mxCell>
        <mxCell id="VqD7BTYmIf6rzseSs0lO-28" value="" style="endArrow=classic;html=1;rounded=0;" edge="1" parent="1">
          <mxGeometry width="50" height="50" relative="1" as="geometry">
            <mxPoint x="140" y="580" as="sourcePoint" />
            <mxPoint x="140" y="520" as="targetPoint" />
          </mxGeometry>
        </mxCell>
        <mxCell id="VqD7BTYmIf6rzseSs0lO-29" value="" style="endArrow=classic;html=1;rounded=0;" edge="1" parent="1">
          <mxGeometry width="50" height="50" relative="1" as="geometry">
            <mxPoint x="170" y="580" as="sourcePoint" />
            <mxPoint x="170" y="520" as="targetPoint" />
          </mxGeometry>
        </mxCell>
        <mxCell id="VqD7BTYmIf6rzseSs0lO-30" value="" style="endArrow=classic;html=1;rounded=0;" edge="1" parent="1">
          <mxGeometry width="50" height="50" relative="1" as="geometry">
            <mxPoint x="208" y="580" as="sourcePoint" />
            <mxPoint x="208" y="520" as="targetPoint" />
          </mxGeometry>
        </mxCell>
        <mxCell id="VqD7BTYmIf6rzseSs0lO-43" value="M" style="resizable=0;html=1;whiteSpace=wrap;align=left;verticalAlign=bottom;" connectable="0" vertex="1" parent="1">
          <mxGeometry x="344" y="509" as="geometry" />
        </mxCell>
        <mxCell id="VqD7BTYmIf6rzseSs0lO-44" value="" style="endArrow=classic;html=1;rounded=0;" edge="1" parent="1">
          <mxGeometry width="50" height="50" relative="1" as="geometry">
            <mxPoint x="374" y="579" as="sourcePoint" />
            <mxPoint x="374" y="519" as="targetPoint" />
          </mxGeometry>
        </mxCell>
        <mxCell id="VqD7BTYmIf6rzseSs0lO-45" value="" style="endArrow=classic;html=1;rounded=0;" edge="1" parent="1">
          <mxGeometry width="50" height="50" relative="1" as="geometry">
            <mxPoint x="504" y="579" as="sourcePoint" />
            <mxPoint x="504" y="519" as="targetPoint" />
          </mxGeometry>
        </mxCell>
        <mxCell id="VqD7BTYmIf6rzseSs0lO-46" value="" style="endArrow=classic;html=1;rounded=0;" edge="1" parent="1">
          <mxGeometry width="50" height="50" relative="1" as="geometry">
            <mxPoint x="404" y="579" as="sourcePoint" />
            <mxPoint x="404" y="519" as="targetPoint" />
          </mxGeometry>
        </mxCell>
        <mxCell id="VqD7BTYmIf6rzseSs0lO-47" value="" style="endArrow=classic;html=1;rounded=0;" edge="1" parent="1">
          <mxGeometry width="50" height="50" relative="1" as="geometry">
            <mxPoint x="437" y="579" as="sourcePoint" />
            <mxPoint x="437" y="519" as="targetPoint" />
          </mxGeometry>
        </mxCell>
        <mxCell id="VqD7BTYmIf6rzseSs0lO-48" value="" style="endArrow=classic;html=1;rounded=0;" edge="1" parent="1">
          <mxGeometry width="50" height="50" relative="1" as="geometry">
            <mxPoint x="472" y="579" as="sourcePoint" />
            <mxPoint x="472" y="519" as="targetPoint" />
          </mxGeometry>
        </mxCell>
        <mxCell id="VqD7BTYmIf6rzseSs0lO-49" value="" style="endArrow=classic;html=1;rounded=0;" edge="1" parent="1">
          <mxGeometry width="50" height="50" relative="1" as="geometry">
            <mxPoint x="270" y="580" as="sourcePoint" />
            <mxPoint x="270" y="520" as="targetPoint" />
          </mxGeometry>
        </mxCell>
        <mxCell id="VqD7BTYmIf6rzseSs0lO-50" value="" style="endArrow=classic;html=1;rounded=0;" edge="1" parent="1">
          <mxGeometry width="50" height="50" relative="1" as="geometry">
            <mxPoint x="305" y="580" as="sourcePoint" />
            <mxPoint x="305" y="520" as="targetPoint" />
          </mxGeometry>
        </mxCell>
        <mxCell id="VqD7BTYmIf6rzseSs0lO-52" value="&lt;font style=&quot;font-size: 18px;&quot;&gt;perfdog&lt;/font&gt;" style="rounded=1;whiteSpace=wrap;html=1;" vertex="1" parent="1">
          <mxGeometry x="400" y="750" width="120" height="60" as="geometry" />
        </mxCell>
      </root>
    </mxGraphModel>
  </diagram>
</mxfile>
